<svg id="Group_2151" data-name="Group 2151" xmlns="http://www.w3.org/2000/svg" width="74.058" height="74.058" viewBox="0 0 74.058 74.058">
  <g id="paint" transform="translate(0 0)">
    <path id="Path_2748" data-name="Path 2748" d="M51.2,273.066H58.6v7.406H51.2Zm0,0" transform="translate(-43.794 -233.569)" fill="#de3242"/>
    <path id="Path_2749" data-name="Path 2749" d="M51.2,162.133H58.6v7.406H51.2Zm0,0" transform="translate(-43.794 -138.682)" fill="#de3242"/>
    <path id="Path_2750" data-name="Path 2750" d="M58.6,413.3a3.7,3.7,0,1,1-3.7-3.7A3.7,3.7,0,0,1,58.6,413.3Zm0,0" transform="translate(-43.793 -350.355)" fill="#de3242"/>
    <path id="Path_2751" data-name="Path 2751" d="M51.2,51.2H58.6V58.6H51.2Zm0,0" transform="translate(-43.794 -43.794)" fill="#de3242"/>
    <path id="Path_2752" data-name="Path 2752" d="M393.769,404.878h9.874a1.235,1.235,0,0,0,1.235-1.235v-9.874a1.235,1.235,0,0,0-1.235-1.234h-9.874a1.234,1.234,0,0,0-1.234,1.234v9.874A1.235,1.235,0,0,0,393.769,404.878Zm0,0" transform="translate(-335.757 -335.757)" fill="#de3242"/>
    <path id="Path_2753" data-name="Path 2753" d="M282.836,404.878h9.874a1.235,1.235,0,0,0,1.235-1.235v-9.874a1.235,1.235,0,0,0-1.235-1.234h-9.874a1.234,1.234,0,0,0-1.234,1.234v9.874A1.235,1.235,0,0,0,282.836,404.878Zm0,0" transform="translate(-240.87 -335.757)" fill="#de3242"/>
    <path id="Path_2754" data-name="Path 2754" d="M170.668,393.769v9.874a1.235,1.235,0,0,0,1.234,1.235h9.874a1.235,1.235,0,0,0,1.235-1.235v-9.874a1.235,1.235,0,0,0-1.235-1.234H171.9A1.234,1.234,0,0,0,170.668,393.769Zm0,0" transform="translate(-145.982 -335.757)" fill="#de3242"/>
    <path id="Path_2755" data-name="Path 2755" d="M280.76,141.145a1.234,1.234,0,0,0,1.745,0l6.982-6.982a1.232,1.232,0,0,0,0-1.745l-6.982-6.982a1.233,1.233,0,0,0-1.745,0l-6.983,6.982a1.233,1.233,0,0,0,0,1.745Zm0,0" transform="translate(-233.868 -106.982)" fill="#de3242"/>
    <path id="Path_2756" data-name="Path 2756" d="M202.319,219.582a1.234,1.234,0,0,0,1.745,0l6.982-6.982a1.233,1.233,0,0,0,0-1.745l-6.982-6.983a1.233,1.233,0,0,0-1.745,0l-6.982,6.983a1.233,1.233,0,0,0,0,1.745Zm0,0" transform="translate(-166.773 -174.073)" fill="#de3242"/>
    <path id="Path_2757" data-name="Path 2757" d="M72.823,51.84H37.943L62.6,27.181a1.234,1.234,0,0,0,0-1.745L48.639,11.472a1.233,1.233,0,0,0-1.745,0L22.218,36.147V1.235A1.235,1.235,0,0,0,20.983,0H1.235A1.235,1.235,0,0,0,0,1.235V62.949A11.122,11.122,0,0,0,11.109,74.058H72.823a1.235,1.235,0,0,0,1.235-1.235V53.075a1.235,1.235,0,0,0-1.235-1.235ZM47.766,14.088,59.984,26.307,34.451,51.84H22.216v-12.2ZM4.937,6.172A1.235,1.235,0,0,1,6.172,4.937h9.874A1.235,1.235,0,0,1,17.28,6.172v9.874a1.234,1.234,0,0,1-1.234,1.234H6.172a1.235,1.235,0,0,1-1.235-1.234Zm0,16.046a1.235,1.235,0,0,1,1.235-1.235h9.874a1.235,1.235,0,0,1,1.234,1.235v9.874a1.234,1.234,0,0,1-1.234,1.234H6.172a1.235,1.235,0,0,1-1.235-1.234Zm0,16.046a1.235,1.235,0,0,1,1.235-1.235h9.874a1.235,1.235,0,0,1,1.234,1.235v9.874a1.234,1.234,0,0,1-1.234,1.234H6.172a1.235,1.235,0,0,1-1.235-1.234Zm0,24.686a6.171,6.171,0,1,1,6.172,6.172A6.178,6.178,0,0,1,4.937,62.949Zm66.652,8.64H18.084c.014-.011.025-.025.04-.036a11.448,11.448,0,0,0,4.1-8.685c.02-2.258,0-4.518,0-6.776V54.309H71.589Zm0,0" transform="translate(0 0)" fill="#de3242"/>
  </g>
</svg>
