<svg id="_035-cube" data-name="035-cube" xmlns="http://www.w3.org/2000/svg" width="70.617" height="80.31" viewBox="0 0 70.617 80.31">
  <path id="Path_3100" data-name="Path 3100" d="M42.766,2.551A1.472,1.472,0,0,1,41.294,1.08V0L8.843,19.47,31.457,33.04l9.837,5.9V37.86a1.471,1.471,0,0,1,2.942,0v1.08l9.667-5.8L76.686,19.47,44.235,0V1.08a1.47,1.47,0,0,1-1.47,1.472ZM44.237,30.5a1.471,1.471,0,0,1-2.942,0V23.148a1.471,1.471,0,0,1,2.942,0Zm0-14.713a1.471,1.471,0,0,1-2.942,0V8.436a1.471,1.471,0,0,1,2.942,0Zm0,0" transform="translate(-7.456 0)" fill="#de3242"/>
  <path id="Path_3101" data-name="Path 3101" d="M261.3,144.906l-25.425,15.257,1.05.631a1.47,1.47,0,1,1-1.514,2.521l-.926-.556v36.173l32.3-16.794-.9-.539a1.471,1.471,0,1,1,1.514-2.523l.925.555V140.691Zm-11.682,25.217a1.471,1.471,0,0,1-2.018.5l-6.1-3.656a1.471,1.471,0,1,1,1.514-2.523l6.1,3.656A1.473,1.473,0,0,1,249.615,170.124Zm12.189,7.315a1.47,1.47,0,0,1-2.019.5l-6.093-3.656a1.471,1.471,0,1,1,1.514-2.523l6.094,3.656A1.474,1.474,0,0,1,261.8,177.438Zm0,0" transform="translate(-197.701 -118.623)" fill="#de3242"/>
  <path id="Path_3102" data-name="Path 3102" d="M32.157,163.525a1.471,1.471,0,0,1-.757-2.732l1.05-.631L0,140.692v38.941l.925-.556A1.471,1.471,0,1,1,2.439,181.6l-.9.538,32.3,16.795V162.759l-.926.556a1.465,1.465,0,0,1-.756.21ZM14.629,174.286l-6.094,3.658a1.471,1.471,0,1,1-1.514-2.522l6.094-3.657a1.47,1.47,0,1,1,1.514,2.521Zm12.189-7.313-6.1,3.658a1.471,1.471,0,1,1-1.513-2.522l6.1-3.657a1.47,1.47,0,1,1,1.513,2.521Zm0,0" transform="translate(0 -118.623)" fill="#de3242"/>
</svg>
