<svg id="Group_2153" data-name="Group 2153" xmlns="http://www.w3.org/2000/svg" width="67.032" height="67.034" viewBox="0 0 67.032 67.034">
  <g id="Group_2119" data-name="Group 2119" transform="translate(35.75 35.753)">
    <g id="Group_2102" data-name="Group 2102" transform="translate(26.813 26.812)">
      <g id="Group_1439" data-name="Group 1439">
        <path id="Path_2934" data-name="Path 2934" d="M481.219,477.867a1.117,1.117,0,0,0-1.117,1.117V480.1h-1.117a1.117,1.117,0,0,0,0,2.235h2.235a1.117,1.117,0,0,0,1.117-1.117v-2.235A1.117,1.117,0,0,0,481.219,477.867Z" transform="translate(-477.867 -477.867)" fill="#de3242"/>
      </g>
    </g>
    <g id="Group_2103" data-name="Group 2103" transform="translate(17.359 29.047)">
      <g id="Group_1441" data-name="Group 1441">
        <path id="Path_2935" data-name="Path 2935" d="M410.557,494.933h-3.782a1.117,1.117,0,0,0,0,2.234h3.782a1.117,1.117,0,0,0,0-2.234Z" transform="translate(-405.658 -494.933)" fill="#de3242"/>
      </g>
    </g>
    <g id="Group_2104" data-name="Group 2104" transform="translate(7.906 29.047)">
      <g id="Group_1443" data-name="Group 1443">
        <path id="Path_2936" data-name="Path 2936" d="M338.348,494.933h-3.782a1.117,1.117,0,1,0,0,2.234h3.782a1.117,1.117,0,0,0,0-2.234Z" transform="translate(-333.449 -494.933)" fill="#de3242"/>
      </g>
    </g>
    <g id="Group_2105" data-name="Group 2105" transform="translate(0 26.812)">
      <g id="Group_1445" data-name="Group 1445">
        <path id="Path_2937" data-name="Path 2937" d="M276.42,480.1H275.3v-1.117a1.117,1.117,0,1,0-2.234,0v2.235a1.117,1.117,0,0,0,1.117,1.117h2.234a1.117,1.117,0,0,0,0-2.235Z" transform="translate(-273.068 -477.867)" fill="#de3242"/>
      </g>
    </g>
    <g id="Group_2106" data-name="Group 2106" transform="translate(0 7.905)">
      <g id="Group_1447" data-name="Group 1447">
        <path id="Path_2938" data-name="Path 2938" d="M274.184,333.457a1.117,1.117,0,0,0-1.117,1.117v3.781a1.117,1.117,0,0,0,2.234,0v-3.781A1.117,1.117,0,0,0,274.184,333.457Z" transform="translate(-273.067 -333.457)" fill="#de3242"/>
      </g>
    </g>
    <g id="Group_2107" data-name="Group 2107" transform="translate(0 17.358)">
      <g id="Group_1449" data-name="Group 1449">
        <path id="Path_2939" data-name="Path 2939" d="M274.184,405.658a1.117,1.117,0,0,0-1.117,1.117v3.782a1.117,1.117,0,1,0,2.234,0v-3.782A1.117,1.117,0,0,0,274.184,405.658Z" transform="translate(-273.067 -405.658)" fill="#de3242"/>
      </g>
    </g>
    <g id="Group_2108" data-name="Group 2108" transform="translate(0)">
      <g id="Group_1451" data-name="Group 1451">
        <path id="Path_2940" data-name="Path 2940" d="M276.419,273.067h-2.234a1.117,1.117,0,0,0-1.117,1.117v2.235a1.117,1.117,0,0,0,2.234,0V275.3h1.117a1.117,1.117,0,0,0,0-2.234Z" transform="translate(-273.067 -273.067)" fill="#de3242"/>
      </g>
    </g>
    <g id="Group_2109" data-name="Group 2109" transform="translate(17.359)">
      <g id="Group_1453" data-name="Group 1453">
        <path id="Path_2941" data-name="Path 2941" d="M410.557,273.067h-3.782a1.117,1.117,0,0,0,0,2.234h3.782a1.117,1.117,0,0,0,0-2.234Z" transform="translate(-405.658 -273.067)" fill="#de3242"/>
      </g>
    </g>
    <g id="Group_2110" data-name="Group 2110" transform="translate(7.906)">
      <g id="Group_1455" data-name="Group 1455">
        <path id="Path_2942" data-name="Path 2942" d="M338.356,273.067h-3.782a1.117,1.117,0,0,0,0,2.234h3.782a1.117,1.117,0,1,0,0-2.234Z" transform="translate(-333.457 -273.067)" fill="#de3242"/>
      </g>
    </g>
    <g id="Group_2111" data-name="Group 2111" transform="translate(26.813)">
      <g id="Group_1457" data-name="Group 1457">
        <path id="Path_2943" data-name="Path 2943" d="M481.219,273.067h-2.235a1.117,1.117,0,1,0,0,2.234H480.1v1.117a1.117,1.117,0,0,0,2.234,0v-2.234A1.117,1.117,0,0,0,481.219,273.067Z" transform="translate(-477.867 -273.067)" fill="#de3242"/>
      </g>
    </g>
    <g id="Group_2112" data-name="Group 2112" transform="translate(29.047 7.905)">
      <g id="Group_1459" data-name="Group 1459">
        <path id="Path_2944" data-name="Path 2944" d="M496.051,333.457a1.117,1.117,0,0,0-1.117,1.117v3.782a1.117,1.117,0,1,0,2.234,0v-3.782A1.117,1.117,0,0,0,496.051,333.457Z" transform="translate(-494.934 -333.457)" fill="#de3242"/>
      </g>
    </g>
    <g id="Group_2113" data-name="Group 2113" transform="translate(29.047 17.36)">
      <g id="Group_1461" data-name="Group 1461">
        <path id="Path_2945" data-name="Path 2945" d="M496.051,405.666a1.117,1.117,0,0,0-1.117,1.117v3.781a1.117,1.117,0,0,0,2.234,0v-3.781A1.117,1.117,0,0,0,496.051,405.666Z" transform="translate(-494.934 -405.666)" fill="#de3242"/>
      </g>
    </g>
    <g id="Group_2114" data-name="Group 2114" transform="translate(4.469 4.467)">
      <g id="Group_1463" data-name="Group 1463">
        <path id="Path_2946" data-name="Path 2946" d="M328.427,317.255h-8.938v-8.938a1.117,1.117,0,1,0-2.234,0v8.938h-8.938a1.117,1.117,0,1,0,0,2.234h8.938v8.938a1.117,1.117,0,0,0,2.234,0v-8.937h8.938a1.117,1.117,0,0,0,0-2.234Z" transform="translate(-307.2 -307.2)" fill="#de3242"/>
      </g>
    </g>
  </g>
  <g id="Group_2120" data-name="Group 2120" transform="translate(0 0)">
    <g id="_071-grid" data-name="071-grid" transform="translate(0)">
      <g id="Group_1434" data-name="Group 1434">
        <g id="Group_1433" data-name="Group 1433">
          <path id="Path_2931" data-name="Path 2931" d="M30.164,0H1.117A1.117,1.117,0,0,0,0,1.117V30.164a1.117,1.117,0,0,0,1.117,1.117H30.164a1.117,1.117,0,0,0,1.117-1.117V1.117A1.117,1.117,0,0,0,30.164,0Z" fill="#de3242"/>
        </g>
      </g>
      <g id="Group_1436" data-name="Group 1436" transform="translate(0 35.75)">
        <g id="Group_1435" data-name="Group 1435">
          <path id="Path_2932" data-name="Path 2932" d="M30.164,273.067H1.117A1.117,1.117,0,0,0,0,274.184v29.047a1.117,1.117,0,0,0,1.117,1.117H30.164a1.117,1.117,0,0,0,1.117-1.117V274.184A1.117,1.117,0,0,0,30.164,273.067Z" transform="translate(0 -273.067)" fill="#de3242"/>
        </g>
      </g>
      <g id="Group_1438" data-name="Group 1438" transform="translate(35.75)">
        <g id="Group_1437" data-name="Group 1437">
          <path id="Path_2933" data-name="Path 2933" d="M303.231,0H274.184a1.117,1.117,0,0,0-1.117,1.117V30.164a1.117,1.117,0,0,0,1.117,1.117h29.047a1.117,1.117,0,0,0,1.117-1.117V1.117A1.117,1.117,0,0,0,303.231,0Z" transform="translate(-273.067)" fill="#de3242"/>
        </g>
      </g>
    </g>
  </g>
</svg>
