<svg id="Group_2150" data-name="Group 2150" xmlns="http://www.w3.org/2000/svg" width="94.866" height="94.863" viewBox="0 0 94.866 94.863">
  <g id="Group_1147" data-name="Group 1147" transform="translate(0 0)">
    <path id="Path_2588" data-name="Path 2588" d="M363.522,164.67l-1.18,3.537-3.728.029a.5.5,0,0,0-.295.906l3,2.215-1.125,3.555a.5.5,0,0,0,.771.56L364,173.3l3.033,2.168a.5.5,0,0,0,.771-.56l-1.125-3.555,3-2.215a.5.5,0,0,0-.294-.907l-3.729-.029-1.18-3.537A.5.5,0,0,0,363.522,164.67Z" transform="translate(-279.594 -142.823)" fill="#de3242"/>
    <path id="Path_2589" data-name="Path 2589" d="M363.522,164.67l-1.18,3.537-3.728.029a.5.5,0,0,0-.295.906l3,2.215-1.125,3.555a.5.5,0,0,0,.771.56L364,173.3l3.033,2.168a.5.5,0,0,0,.771-.56l-1.125-3.555,3-2.215a.5.5,0,0,0-.294-.907l-3.729-.029-1.18-3.537A.5.5,0,0,0,363.522,164.67Z" transform="translate(-275.016 -121.321)" fill="#de3242"/>
    <path id="Path_2595" data-name="Path 2595" d="M363.522,164.67l-1.18,3.537-3.728.029a.5.5,0,0,0-.295.906l3,2.215-1.125,3.555a.5.5,0,0,0,.771.56L364,173.3l3.033,2.168a.5.5,0,0,0,.771-.56l-1.125-3.555,3-2.215a.5.5,0,0,0-.294-.907l-3.729-.029-1.18-3.537A.5.5,0,0,0,363.522,164.67Z" transform="translate(-358.114 -121.321)" fill="#de3242"/>
    <path id="Path_2590" data-name="Path 2590" d="M363.522,164.67l-1.18,3.537-3.728.029a.5.5,0,0,0-.295.906l3,2.215-1.125,3.555a.5.5,0,0,0,.771.56L364,173.3l3.033,2.168a.5.5,0,0,0,.771-.56l-1.125-3.555,3-2.215a.5.5,0,0,0-.294-.907l-3.729-.029-1.18-3.537A.5.5,0,0,0,363.522,164.67Z" transform="translate(-295.791 -86.425)" fill="#de3242"/>
    <path id="Path_2598" data-name="Path 2598" d="M363.522,164.67l-1.18,3.537-3.728.029a.5.5,0,0,0-.295.906l3,2.215-1.125,3.555a.5.5,0,0,0,.771.56L364,173.3l3.033,2.168a.5.5,0,0,0,.771-.56l-1.125-3.555,3-2.215a.5.5,0,0,0-.294-.907l-3.729-.029-1.18-3.537A.5.5,0,0,0,363.522,164.67Z" transform="translate(-295.791 -158.605)" fill="#de3242"/>
    <path id="Path_2591" data-name="Path 2591" d="M363.522,164.67l-1.18,3.537-3.728.029a.5.5,0,0,0-.295.906l3,2.215-1.125,3.555a.5.5,0,0,0,.771.56L364,173.3l3.033,2.168a.5.5,0,0,0,.771-.56l-1.125-3.555,3-2.215a.5.5,0,0,0-.294-.907l-3.729-.029-1.18-3.537A.5.5,0,0,0,363.522,164.67Z" transform="translate(-316.565 -80.705)" fill="#de3242"/>
    <path id="Path_2599" data-name="Path 2599" d="M363.522,164.67l-1.18,3.537-3.728.029a.5.5,0,0,0-.295.906l3,2.215-1.125,3.555a.5.5,0,0,0,.771.56L364,173.3l3.033,2.168a.5.5,0,0,0,.771-.56l-1.125-3.555,3-2.215a.5.5,0,0,0-.294-.907l-3.729-.029-1.18-3.537A.5.5,0,0,0,363.522,164.67Z" transform="translate(-316.565 -164.326)" fill="#de3242"/>
    <path id="Path_2592" data-name="Path 2592" d="M363.522,164.67l-1.18,3.537-3.728.029a.5.5,0,0,0-.295.906l3,2.215-1.125,3.555a.5.5,0,0,0,.771.56L364,173.3l3.033,2.168a.5.5,0,0,0,.771-.56l-1.125-3.555,3-2.215a.5.5,0,0,0-.294-.907l-3.729-.029-1.18-3.537A.5.5,0,0,0,363.522,164.67Z" transform="translate(-337.34 -86.425)" fill="#de3242"/>
    <path id="Path_2597" data-name="Path 2597" d="M363.522,164.67l-1.18,3.537-3.728.029a.5.5,0,0,0-.295.906l3,2.215-1.125,3.555a.5.5,0,0,0,.771.56L364,173.3l3.033,2.168a.5.5,0,0,0,.771-.56l-1.125-3.555,3-2.215a.5.5,0,0,0-.294-.907l-3.729-.029-1.18-3.537A.5.5,0,0,0,363.522,164.67Z" transform="translate(-337.34 -158.605)" fill="#de3242"/>
    <path id="Path_2593" data-name="Path 2593" d="M363.522,164.67l-1.18,3.537-3.728.029a.5.5,0,0,0-.295.906l3,2.215-1.125,3.555a.5.5,0,0,0,.771.56L364,173.3l3.033,2.168a.5.5,0,0,0,.771-.56l-1.125-3.555,3-2.215a.5.5,0,0,0-.294-.907l-3.729-.029-1.18-3.537A.5.5,0,0,0,363.522,164.67Z" transform="translate(-352.394 -102.207)" fill="#de3242"/>
    <path id="Path_2596" data-name="Path 2596" d="M363.522,164.67l-1.18,3.537-3.728.029a.5.5,0,0,0-.295.906l3,2.215-1.125,3.555a.5.5,0,0,0,.771.56L364,173.3l3.033,2.168a.5.5,0,0,0,.771-.56l-1.125-3.555,3-2.215a.5.5,0,0,0-.294-.907l-3.729-.029-1.18-3.537A.5.5,0,0,0,363.522,164.67Z" transform="translate(-352.394 -142.823)" fill="#de3242"/>
    <path id="Path_2594" data-name="Path 2594" d="M363.522,164.67l-1.18,3.537-3.728.029a.5.5,0,0,0-.295.906l3,2.215-1.125,3.555a.5.5,0,0,0,.771.56L364,173.3l3.033,2.168a.5.5,0,0,0,.771-.56l-1.125-3.555,3-2.215a.5.5,0,0,0-.294-.907l-3.729-.029-1.18-3.537A.5.5,0,0,0,363.522,164.67Z" transform="translate(-279.594 -102.207)" fill="#de3242"/>
  </g>
  <path id="Path_2991" data-name="Path 2991" d="M80.48,12.307H78.965V8.562a8.562,8.562,0,0,0-17.124,0v3.745H60.327a.886.886,0,0,0-.886.886V29.8a.886.886,0,0,0,.886.886H80.48a.886.886,0,0,0,.886-.886V13.192A.886.886,0,0,0,80.48,12.307Zm-8.7,10.11v3.537a.559.559,0,0,1-.559.559H69.582a.559.559,0,0,1-.559-.559V22.417a2.391,2.391,0,1,1,2.762,0Zm3.093-10.11H65.929V8.562a4.474,4.474,0,0,1,8.948,0Z" transform="translate(-23.635 30.689)" fill="#de3242"/>
</svg>
