<svg id="_045-text" data-name="045-text" xmlns="http://www.w3.org/2000/svg" width="79.523" height="79.523" viewBox="0 0 79.523 79.523">
  <g id="Group_2087" data-name="Group 2087" transform="translate(0 0)">
    <g id="Group_2086" data-name="Group 2086">
      <path id="Path_3098" data-name="Path 3098" d="M78.2,10.6a1.325,1.325,0,0,0,1.325-1.325V1.325A1.325,1.325,0,0,0,78.2,0H70.245A1.325,1.325,0,0,0,68.92,1.325V3.976H10.6V1.325A1.325,1.325,0,0,0,9.278,0H1.325A1.325,1.325,0,0,0,0,1.325V9.278A1.325,1.325,0,0,0,1.325,10.6H3.976V68.92H1.325A1.325,1.325,0,0,0,0,70.245V78.2a1.325,1.325,0,0,0,1.325,1.325H9.278A1.325,1.325,0,0,0,10.6,78.2V75.547H68.92V78.2a1.325,1.325,0,0,0,1.325,1.325H78.2A1.325,1.325,0,0,0,79.522,78.2V70.245A1.325,1.325,0,0,0,78.2,68.92H75.547V10.6ZM72.9,68.92H70.245a1.325,1.325,0,0,0-1.325,1.325V72.9H10.6V70.245A1.325,1.325,0,0,0,9.278,68.92H6.627V10.6H9.278A1.325,1.325,0,0,0,10.6,9.278V6.627H68.92V9.278A1.325,1.325,0,0,0,70.245,10.6H72.9V68.92Z" transform="translate(0 0)" fill="#de3242"/>
    </g>
  </g>
  <g id="Group_2089" data-name="Group 2089" transform="translate(15.905 11.928)">
    <g id="Group_2088" data-name="Group 2088">
      <path id="Path_3099" data-name="Path 3099" d="M148.788,76.8H103.725a1.325,1.325,0,0,0-1.325,1.325v10.6a1.325,1.325,0,0,0,1.325,1.325h5.3a1.325,1.325,0,0,0,1.325-1.325V84.752h11.928v39.761h-5.3a1.325,1.325,0,0,0-1.325,1.325v5.3a1.325,1.325,0,0,0,1.325,1.325h18.555a1.325,1.325,0,0,0,1.325-1.325v-5.3a1.325,1.325,0,0,0-1.325-1.325h-5.3V84.752h11.928v3.976a1.325,1.325,0,0,0,1.325,1.325h5.3a1.325,1.325,0,0,0,1.325-1.325v-10.6A1.325,1.325,0,0,0,148.788,76.8Z" transform="translate(-102.4 -76.8)" fill="#de3242"/>
    </g>
  </g>
</svg>
