<svg id="Group_2152" data-name="Group 2152" xmlns="http://www.w3.org/2000/svg" width="75.606" height="75.606" viewBox="0 0 75.606 75.606">
  <g id="_001-vector" data-name="001-vector">
    <path id="Path_2500" data-name="Path 2500" d="M142.977,198.017l6.091-4.363a1.254,1.254,0,0,1,.947-.217l6.738,1.165L146.665,182.34Zm0,0" transform="translate(-110.74 -144.29)" fill="#de3242"/>
    <path id="Path_2501" data-name="Path 2501" d="M74.346,2.52H39.064V1.26A1.26,1.26,0,0,0,37.8,0h-5.04A1.26,1.26,0,0,0,31.5,1.26V2.52H3.781a1.26,1.26,0,0,0-1.26,1.26V31.5H1.261A1.26,1.26,0,0,0,0,32.763V37.8a1.26,1.26,0,0,0,1.26,1.26H2.52V74.346a1.26,1.26,0,0,0,1.26,1.26H74.346a1.26,1.26,0,0,0,1.26-1.26V3.781a1.26,1.26,0,0,0-1.26-1.26Zm-40.323,0h2.52V5.04h-2.52Zm-9.24,1.065c.84-.231,1.7-.425,2.565-.581a1.26,1.26,0,0,1,.447,2.481c-.787.141-1.578.321-2.348.532a1.324,1.324,0,0,1-.333.044,1.26,1.26,0,0,1-.331-2.476ZM17.532,6.631c.755-.441,1.536-.853,2.323-1.226a1.26,1.26,0,0,1,1.08,2.277c-.722.341-1.439.72-2.133,1.125a1.26,1.26,0,1,1-1.27-2.176Zm-14,18.335c.224-.842.489-1.686.786-2.509a1.26,1.26,0,1,1,2.37.855c-.273.756-.516,1.53-.721,2.3a1.259,1.259,0,0,1-1.216.936,1.316,1.316,0,0,1-.325-.042,1.258,1.258,0,0,1-.895-1.541ZM2.521,34.023h2.52v2.52H2.521Zm7.492-17.1c-.456.654-.891,1.337-1.292,2.032a1.261,1.261,0,1,1-2.185-1.257c.437-.76.911-1.506,1.41-2.22a1.261,1.261,0,0,1,2.066,1.446Zm4.86-5.336c-.615.522-1.211,1.072-1.773,1.637a1.26,1.26,0,1,1-1.786-1.777c.611-.614,1.26-1.215,1.93-1.782a1.26,1.26,0,0,1,1.63,1.921Z" transform="translate(0 0)" fill="#de3242"/>
  </g>
  <g id="cursor" transform="translate(29.064 29.08)">
    <path id="Path_2521" data-name="Path 2521" d="M99.123,94.254l-6.7-6.7L97.2,84.8a1.126,1.126,0,0,0-.146-2.02l-21.307-8.5a1.125,1.125,0,0,0-1.462,1.462l8.5,21.309a1.126,1.126,0,0,0,2.02.146l2.76-4.778,6.7,6.7a1.125,1.125,0,0,0,1.591,0l3.268-3.268A1.125,1.125,0,0,0,99.123,94.254Zm-4.064,2.473-6.938-6.939a1.125,1.125,0,0,0-1.77.233L84.018,94.06,77.349,77.339l16.72,6.669L90.03,86.341a1.125,1.125,0,0,0-.233,1.77l6.939,6.939Z" transform="translate(-65.8 -65.79)" fill="#fff"/>
    <path id="Path_2522" data-name="Path 2522" d="M28.575,26.974a1.126,1.126,0,0,0-1.592,1.592l2.5,2.5a1.126,1.126,0,0,0,1.592-1.592Z" transform="translate(-23.635 -23.626)" fill="#fff"/>
    <path id="Path_2523" data-name="Path 2523" d="M5.8,89.409a1.126,1.126,0,0,0-1.126-1.125H1.139a1.125,1.125,0,1,0,0,2.251H4.675A1.126,1.126,0,0,0,5.8,89.409Z" transform="translate(-0.013 -78.28)" fill="#fff"/>
    <path id="Path_2524" data-name="Path 2524" d="M24.913,126.291l-2.5,2.5A1.125,1.125,0,1,0,24,130.384l2.5-2.5a1.125,1.125,0,0,0-1.592-1.592Z" transform="translate(-19.581 -111.688)" fill="#fff"/>
    <path id="Path_2525" data-name="Path 2525" d="M89.416,5.788a1.126,1.126,0,0,0,1.125-1.126V1.125a1.125,1.125,0,1,0-2.251,0V4.662A1.125,1.125,0,0,0,89.416,5.788Z" transform="translate(-78.288)" fill="#fff"/>
    <path id="Path_2526" data-name="Path 2526" d="M127.087,26.824a1.121,1.121,0,0,0,.8-.33l2.5-2.5a1.125,1.125,0,0,0-1.592-1.592l-2.5,2.5a1.125,1.125,0,0,0,.8,1.921Z" transform="translate(-111.69 -19.572)" fill="#fff"/>
  </g>
</svg>
