<svg id="_072-layout" data-name="072-layout" xmlns="http://www.w3.org/2000/svg" width="67.262" height="67.262" viewBox="0 0 67.262 67.262">
  <g id="Group_2140" data-name="Group 2140" transform="translate(44.841)">
    <g id="Group_2139" data-name="Group 2139">
      <path id="Path_3129" data-name="Path 3129" d="M362.633,0h-21.3V42.35h22.421V2.117C363.754.946,363.252,0,362.633,0Z" transform="translate(-341.333)" fill="#de3242"/>
    </g>
  </g>
  <g id="Group_2142" data-name="Group 2142" transform="translate(0 14.281)">
    <g id="Group_2141" data-name="Group 2141">
      <path id="Path_3130" data-name="Path 3130" d="M170.667,264.533v52.981h42.6V264.533Z" transform="translate(-170.667 -264.533)" fill="#de3242"/>
    </g>
  </g>
  <g id="Group_2144" data-name="Group 2144">
    <g id="Group_2143" data-name="Group 2143">
      <path id="Path_3131" data-name="Path 3131" d="M2.367,0A7.656,7.656,0,0,0,0,.187V11.023a7.654,7.654,0,0,0,2.367.187H42.6V0Z" fill="#de3242"/>
    </g>
  </g>
  <g id="Group_2148" data-name="Group 2148" transform="translate(44.841 44.841)">
    <g id="Group_2147" data-name="Group 2147">
      <path id="Path_3133" data-name="Path 3133" d="M341.333,341.333v22.421h21.3a1.121,1.121,0,0,0,1.121-1.121v-21.3Z" transform="translate(-341.333 -341.333)" fill="#de3242"/>
    </g>
  </g>
</svg>
