<svg xmlns="http://www.w3.org/2000/svg" width="75.179" height="72.435" viewBox="0 0 75.179 72.435">
  <path id="internet-symbol" d="M73.427,17.021c-2.424-2.907-7.042-3.61-13.25-2.1A36.2,36.2,0,0,0,5.025,60.442C2.092,66.626,1.833,71.572,4.359,74.6c1.6,1.92,4.105,2.893,7.445,2.893h.129a1.762,1.762,0,0,0-.013-3.524h-.013c-2.3.019-3.929-.53-4.842-1.625-1.358-1.628-1.229-4.6.284-8.442a36.2,36.2,0,1,0,55.828-46c3.62-.58,6.289-.129,7.543,1.375.951,1.14,1.177,2.931.674,5.323a1.762,1.762,0,1,0,3.448.726C75.58,21.826,75.1,19.031,73.427,17.021ZM64.1,25A32.474,32.474,0,0,1,68.863,40.3H52.106a76.608,76.608,0,0,0-1.783-15.27H63.834A1.771,1.771,0,0,0,64.1,25Zm.114,33.922a1.757,1.757,0,0,0-.38-.042H50.371a76.829,76.829,0,0,0,1.735-15.064H68.863A32.475,32.475,0,0,1,64.214,58.926Zm-28,15.825c-2.972,0-6.024-3.28-8.371-9-.434-1.056-.832-2.177-1.2-3.345h19.14c-.367,1.168-.765,2.288-1.2,3.345C42.241,71.471,39.19,74.751,36.218,74.751ZM25.679,58.884a72.286,72.286,0,0,1-1.825-15.064H48.58a72.272,72.272,0,0,1-1.825,15.064ZM8.336,25a1.776,1.776,0,0,0,.273.023h13.5A76.593,76.593,0,0,0,20.33,40.283l-.013.012H3.572A32.475,32.475,0,0,1,8.336,25ZM36.218,9.364c2.972,0,6.024,3.28,8.371,9,.35.853.677,1.747.983,2.673q-.411.23-.824.466H26.713c.349-1.093.725-2.145,1.133-3.139C30.194,12.644,33.245,9.364,36.218,9.364Zm10.49,15.662A72.058,72.058,0,0,1,48.58,40.3H25.4q2.422-2.255,5.128-4.516A114.117,114.117,0,0,1,45.69,25.026Zm-7.661,0a123.281,123.281,0,0,0-10.774,8.047q-2.2,1.833-4.27,3.722a69.121,69.121,0,0,1,1.723-11.769h13.32ZM22.064,58.884H9.841A77.185,77.185,0,0,1,20.373,45.273,75.781,75.781,0,0,0,22.064,58.884ZM47.849,17.025a27.544,27.544,0,0,0-3.783-6.706,32.591,32.591,0,0,1,12.063,5.827c-.367.13-.737.265-1.113.408a67.087,67.087,0,0,0-6.293,2.8C48.447,18.556,48.157,17.775,47.849,17.025Zm-19.48-6.706a27.544,27.544,0,0,0-3.783,6.706A46.416,46.416,0,0,0,23.028,21.5H10.815A32.754,32.754,0,0,1,28.369,10.319Zm-24.8,33.5H16.912a80.589,80.589,0,0,0-9.7,12.587c-.068.113-.133.224-.2.335A32.458,32.458,0,0,1,3.572,43.819Zm7.077,18.588h12.32a46.651,46.651,0,0,0,1.617,4.683A27.544,27.544,0,0,0,28.369,73.8,32.763,32.763,0,0,1,10.649,62.408ZM44.066,73.8a27.544,27.544,0,0,0,3.783-6.706,46.691,46.691,0,0,0,1.617-4.683h12.32A32.76,32.76,0,0,1,44.066,73.8ZM61.62,21.5H52.374q1.991-.926,3.9-1.655,1.525-.581,2.939-1.008A33.046,33.046,0,0,1,61.62,21.5Z" transform="translate(0 -5.84)" fill="#de3242"/>
</svg>
